<svg width="160" height="67" viewBox="0 0 160 67" fill="none" xmlns="http://www.w3.org/2000/svg">
<path d="M31.2403 20.1338L31.2403 20.1338C28.3965 18.2124 28.1938 14.0058 30.8396 11.8202C31.4116 11.3476 31.9341 11.0221 32.5451 10.8391C33.1511 10.6576 33.8031 10.6288 34.6126 10.6816C35.5797 10.7447 36.2834 10.9518 36.9794 11.4118L31.2403 20.1338ZM31.2403 20.1338C31.9479 20.6118 32.6235 20.9181 33.3483 21.0335C34.0735 21.149 34.8075 21.0671 35.6218 20.8307L35.4824 20.3505M31.2403 20.1338L35.4824 20.3505M35.4824 20.3505L35.6218 20.8307C36.8377 20.4776 37.8105 19.8009 38.457 18.8666C39.103 17.933 39.4017 16.7732 39.3244 15.489C39.2193 13.7449 38.4303 12.3707 36.9795 11.4119L35.4824 20.3505ZM0.75395 28.4708L0.753952 28.4708C2.93431 14.3033 13.9297 3.24153 28.2722 0.803374C30.8835 0.359633 36.1936 0.409115 39.1248 0.909569C53.0621 3.2893 63.9117 14.3194 66.2 28.4496C66.3812 29.5681 66.4844 31.4067 66.4984 33.2621C66.5123 35.1181 66.4366 36.9425 66.2724 38.0331C64.1144 52.3736 53.3006 63.5346 39.174 66.0153C30.4578 67.5459 21.1758 65.4064 14.0941 60.2373C7.05193 55.0973 2.418 47.6715 0.86042 39.0268L0.368403 39.1155L0.860415 39.0268C0.648284 37.8498 0.523896 35.8364 0.503111 33.7837C0.482335 31.7318 0.565607 29.6943 0.75395 28.4708ZM21.6105 17.8256L21.4519 18.2998L21.6105 17.8256C17.6841 16.5126 13.8665 19.9979 14.8329 24.0212C15.8306 28.1755 21.2304 29.3818 23.9528 26.0833C26.2695 23.2763 25.0561 18.9779 21.6105 17.8256ZM28.814 32.5019L29.2639 32.2838L28.814 32.5019C30.7 36.3928 36.1475 36.4091 38.1135 32.553C39.5712 29.6942 38.1384 26.1317 35.1073 25.2247C30.6643 23.8952 26.7927 28.3315 28.814 32.5019Z" fill="black" stroke="white"/>
<path d="M37.2226 32.0987L37.2226 32.0987C35.6249 35.2325 31.2329 35.1996 29.7139 32.0657C28.0847 28.7044 31.1835 25.0944 34.8206 26.1827C37.2208 26.9009 38.4125 29.7652 37.2226 32.0987ZM15.8053 23.7877L15.8053 23.7877C15.0232 20.5319 18.108 17.7088 21.2933 18.774C24.0669 19.7015 25.0559 23.1757 23.1815 25.4468C20.9741 28.1214 16.6067 27.1246 15.8053 23.7877ZM36.428 12.2461L36.4281 12.2461C37.6144 13.0301 38.2399 14.1164 38.3262 15.5491C38.3919 16.6402 38.137 17.5716 37.6347 18.2976C37.1328 19.0229 36.3627 19.5743 35.343 19.8703C34.6251 20.0787 34.045 20.1319 33.5056 20.046C32.9659 19.96 32.4266 19.7284 31.8001 19.3052C29.5095 17.7575 29.3455 14.3515 31.4765 12.5911L31.4765 12.5911C31.9912 12.1659 32.3956 11.9277 32.832 11.797C33.2733 11.6649 33.789 11.63 34.5475 11.6795C35.3821 11.7339 35.908 11.9023 36.428 12.2461Z" fill="white" stroke="white"/>
<path d="M52.6 31.8C52.44 31.8 52.296 31.744 52.168 31.632C52.056 31.504 52 31.36 52 31.2V15.6C52 15.424 52.056 15.28 52.168 15.168C52.28 15.056 52.424 15 52.6 15H55.696C55.872 15 56.016 15.056 56.128 15.168C56.256 15.28 56.32 15.424 56.32 15.6V27.96H60.016V15.6C60.016 15.424 60.072 15.28 60.184 15.168C60.312 15.056 60.456 15 60.616 15H63.736C63.912 15 64.056 15.056 64.168 15.168C64.28 15.28 64.336 15.424 64.336 15.6V27.96H68.032V15.6C68.032 15.424 68.088 15.28 68.2 15.168C68.328 15.056 68.472 15 68.632 15H71.728C71.904 15 72.048 15.056 72.16 15.168C72.288 15.28 72.352 15.424 72.352 15.6V31.2C72.352 31.376 72.288 31.52 72.16 31.632C72.048 31.744 71.904 31.8 71.728 31.8H52.6Z" fill="white"/>
<path d="M79.1987 32.04C78.3507 32.04 77.5748 31.88 76.8708 31.56C76.1828 31.224 75.6388 30.776 75.2388 30.216C74.8547 29.64 74.6628 29.008 74.6628 28.32C74.6628 27.216 75.1108 26.328 76.0068 25.656C76.9188 24.984 78.1667 24.52 79.7507 24.264L82.7508 23.808V23.472C82.7508 22.864 82.6227 22.416 82.3667 22.128C82.1107 21.84 81.6787 21.696 81.0707 21.696C80.7027 21.696 80.3988 21.76 80.1588 21.888C79.9188 22.016 79.6707 22.192 79.4147 22.416C79.1908 22.608 79.0227 22.736 78.9107 22.8C78.8627 22.928 78.7747 22.992 78.6467 22.992H76.0308C75.8708 22.992 75.7347 22.944 75.6227 22.848C75.5267 22.736 75.4867 22.608 75.5028 22.464C75.5188 22.032 75.7267 21.552 76.1267 21.024C76.5427 20.496 77.1667 20.04 77.9988 19.656C78.8468 19.272 79.8867 19.08 81.1187 19.08C83.0868 19.08 84.5428 19.52 85.4868 20.4C86.4308 21.264 86.9027 22.432 86.9027 23.904V31.2C86.9027 31.36 86.8467 31.504 86.7347 31.632C86.6227 31.744 86.4787 31.8 86.3027 31.8H83.5187C83.3587 31.8 83.2148 31.744 83.0868 31.632C82.9748 31.504 82.9188 31.36 82.9188 31.2V30.36C82.5668 30.856 82.0707 31.264 81.4307 31.584C80.8067 31.888 80.0627 32.04 79.1987 32.04ZM80.3267 29.304C81.0627 29.304 81.6548 29.064 82.1028 28.584C82.5667 28.104 82.7988 27.4 82.7988 26.472V26.136L80.7587 26.496C79.3187 26.752 78.5987 27.256 78.5987 28.008C78.5987 28.408 78.7668 28.728 79.1028 28.968C79.4388 29.192 79.8468 29.304 80.3267 29.304Z" fill="white"/>
<path d="M90.211 36.36C90.051 36.36 89.907 36.304 89.779 36.192C89.667 36.08 89.611 35.936 89.611 35.76V19.92C89.611 19.744 89.667 19.6 89.779 19.488C89.907 19.376 90.051 19.32 90.211 19.32H92.923C93.099 19.32 93.243 19.376 93.355 19.488C93.467 19.6 93.523 19.744 93.523 19.92V20.784C94.387 19.648 95.627 19.08 97.243 19.08C98.811 19.08 100.035 19.568 100.915 20.544C101.795 21.52 102.275 22.896 102.355 24.672C102.371 24.88 102.379 25.176 102.379 25.56C102.379 25.944 102.371 26.24 102.355 26.448C102.291 28.176 101.811 29.544 100.915 30.552C100.019 31.544 98.795 32.04 97.243 32.04C95.675 32.04 94.507 31.504 93.739 30.432V35.76C93.739 35.936 93.683 36.08 93.571 36.192C93.459 36.304 93.315 36.36 93.139 36.36H90.211ZM95.947 28.824C96.699 28.824 97.235 28.6 97.555 28.152C97.891 27.704 98.083 27.088 98.131 26.304C98.163 25.984 98.179 25.736 98.179 25.56C98.179 25.384 98.163 25.136 98.131 24.816C98.083 24.032 97.891 23.416 97.555 22.968C97.235 22.52 96.699 22.296 95.947 22.296C95.211 22.296 94.667 22.528 94.315 22.992C93.979 23.44 93.787 24.024 93.739 24.744L93.715 25.632L93.739 26.544C93.771 27.2 93.971 27.744 94.339 28.176C94.707 28.608 95.243 28.824 95.947 28.824Z" fill="white"/>
<path d="M110.656 32.04C108.672 32.04 107.144 31.568 106.072 30.624C105 29.68 104.416 28.352 104.32 26.64C104.304 26.432 104.296 26.072 104.296 25.56C104.296 25.048 104.304 24.688 104.32 24.48C104.416 22.784 105.016 21.464 106.12 20.52C107.224 19.56 108.736 19.08 110.656 19.08C112.592 19.08 114.112 19.56 115.216 20.52C116.32 21.464 116.92 22.784 117.016 24.48C117.032 24.688 117.04 25.048 117.04 25.56C117.04 26.072 117.032 26.432 117.016 26.64C116.92 28.352 116.336 29.68 115.264 30.624C114.192 31.568 112.656 32.04 110.656 32.04ZM110.656 29.112C111.36 29.112 111.88 28.904 112.216 28.488C112.552 28.056 112.744 27.4 112.792 26.52C112.808 26.36 112.816 26.04 112.816 25.56C112.816 25.08 112.808 24.76 112.792 24.6C112.744 23.736 112.544 23.088 112.192 22.656C111.856 22.224 111.344 22.008 110.656 22.008C109.328 22.008 108.624 22.872 108.544 24.6L108.52 25.56L108.544 26.52C108.576 27.4 108.76 28.056 109.096 28.488C109.448 28.904 109.968 29.112 110.656 29.112Z" fill="white"/>
<path d="M120.023 31.8C119.847 31.8 119.703 31.744 119.591 31.632C119.479 31.52 119.424 31.376 119.424 31.2V19.92C119.424 19.744 119.479 19.6 119.591 19.488C119.703 19.376 119.847 19.32 120.023 19.32H125.64C127.48 19.32 128.848 19.632 129.743 20.256C130.656 20.88 131.112 21.752 131.112 22.872C131.112 23.448 130.999 23.936 130.775 24.336C130.551 24.72 130.224 25.048 129.792 25.32C130.32 25.592 130.735 25.968 131.039 26.448C131.343 26.928 131.495 27.48 131.495 28.104C131.495 29.288 131.04 30.2 130.128 30.84C129.215 31.48 127.839 31.8 125.999 31.8H120.023ZM125.712 24.192C126.224 24.192 126.623 24.096 126.911 23.904C127.2 23.696 127.343 23.392 127.343 22.992C127.343 22.256 126.799 21.888 125.712 21.888H123.312V24.192H125.712ZM125.759 29.232C126.863 29.232 127.415 28.84 127.415 28.056C127.415 27.64 127.28 27.344 127.007 27.168C126.735 26.976 126.319 26.88 125.759 26.88H123.312V29.232H125.759Z" fill="white"/>
<path d="M137.722 32.04C136.874 32.04 136.098 31.88 135.394 31.56C134.706 31.224 134.162 30.776 133.762 30.216C133.378 29.64 133.186 29.008 133.186 28.32C133.186 27.216 133.634 26.328 134.53 25.656C135.442 24.984 136.69 24.52 138.274 24.264L141.274 23.808V23.472C141.274 22.864 141.146 22.416 140.89 22.128C140.634 21.84 140.202 21.696 139.594 21.696C139.226 21.696 138.922 21.76 138.682 21.888C138.442 22.016 138.194 22.192 137.938 22.416C137.714 22.608 137.546 22.736 137.434 22.8C137.386 22.928 137.298 22.992 137.17 22.992H134.554C134.394 22.992 134.258 22.944 134.146 22.848C134.05 22.736 134.01 22.608 134.026 22.464C134.042 22.032 134.25 21.552 134.65 21.024C135.066 20.496 135.69 20.04 136.522 19.656C137.37 19.272 138.41 19.08 139.642 19.08C141.61 19.08 143.066 19.52 144.01 20.4C144.954 21.264 145.426 22.432 145.426 23.904V31.2C145.426 31.36 145.37 31.504 145.258 31.632C145.146 31.744 145.002 31.8 144.826 31.8H142.042C141.882 31.8 141.738 31.744 141.61 31.632C141.498 31.504 141.442 31.36 141.442 31.2V30.36C141.09 30.856 140.594 31.264 139.954 31.584C139.33 31.888 138.586 32.04 137.722 32.04ZM138.85 29.304C139.586 29.304 140.178 29.064 140.626 28.584C141.09 28.104 141.322 27.4 141.322 26.472V26.136L139.282 26.496C137.842 26.752 137.122 27.256 137.122 28.008C137.122 28.408 137.29 28.728 137.626 28.968C137.962 29.192 138.37 29.304 138.85 29.304Z" fill="white"/>
<path d="M159.102 19.32C159.278 19.32 159.422 19.376 159.534 19.488C159.646 19.6 159.702 19.744 159.702 19.92V31.2C159.702 31.36 159.646 31.504 159.534 31.632C159.422 31.744 159.278 31.8 159.102 31.8H156.174C156.014 31.8 155.87 31.744 155.742 31.632C155.63 31.504 155.574 31.36 155.574 31.2V27.792H153.846L151.854 31.44C151.726 31.68 151.534 31.8 151.278 31.8H148.422C148.262 31.8 148.134 31.752 148.038 31.656C147.942 31.56 147.894 31.448 147.894 31.32C147.894 31.192 147.934 31.08 148.014 30.984L150.414 27.048C149.726 26.696 149.206 26.224 148.854 25.632C148.502 25.024 148.326 24.32 148.326 23.52C148.326 22.16 148.774 21.12 149.67 20.4C150.566 19.68 151.822 19.32 153.438 19.32H159.102ZM155.646 22.08H153.654C153.062 22.08 152.622 22.192 152.334 22.416C152.062 22.64 151.926 23.008 151.926 23.52C151.926 24 152.062 24.376 152.334 24.648C152.606 24.904 153.014 25.032 153.558 25.032H155.646V22.08Z" fill="white"/>
<path d="M42.6 52.8C42.44 52.8 42.296 52.744 42.168 52.632C42.056 52.504 42 52.36 42 52.2V36.6C42 36.424 42.056 36.28 42.168 36.168C42.296 36.056 42.44 36 42.6 36H45.192C45.576 36 45.856 36.176 46.032 36.528L50.256 44.088L54.48 36.528C54.656 36.176 54.936 36 55.32 36H57.888C58.064 36 58.208 36.056 58.32 36.168C58.448 36.28 58.512 36.424 58.512 36.6V52.2C58.512 52.376 58.448 52.52 58.32 52.632C58.208 52.744 58.064 52.8 57.888 52.8H55.032C54.856 52.8 54.704 52.744 54.576 52.632C54.464 52.52 54.408 52.376 54.408 52.2V43.2L51.72 48.216C51.512 48.584 51.232 48.768 50.88 48.768H49.632C49.424 48.768 49.256 48.72 49.128 48.624C49 48.528 48.888 48.392 48.792 48.216L46.08 43.2V52.2C46.08 52.36 46.024 52.504 45.912 52.632C45.8 52.744 45.656 52.8 45.48 52.8H42.6Z" fill="white"/>
<path d="M67.515 53.04C65.531 53.04 64.003 52.568 62.931 51.624C61.859 50.68 61.275 49.352 61.179 47.64C61.163 47.432 61.155 47.072 61.155 46.56C61.155 46.048 61.163 45.688 61.179 45.48C61.275 43.784 61.875 42.464 62.979 41.52C64.083 40.56 65.595 40.08 67.515 40.08C69.451 40.08 70.971 40.56 72.075 41.52C73.179 42.464 73.779 43.784 73.875 45.48C73.891 45.688 73.899 46.048 73.899 46.56C73.899 47.072 73.891 47.432 73.875 47.64C73.779 49.352 73.195 50.68 72.123 51.624C71.051 52.568 69.515 53.04 67.515 53.04ZM67.515 50.112C68.219 50.112 68.739 49.904 69.075 49.488C69.411 49.056 69.603 48.4 69.651 47.52C69.667 47.36 69.675 47.04 69.675 46.56C69.675 46.08 69.667 45.76 69.651 45.6C69.603 44.736 69.403 44.088 69.051 43.656C68.715 43.224 68.203 43.008 67.515 43.008C66.187 43.008 65.483 43.872 65.403 45.6L65.379 46.56L65.403 47.52C65.435 48.4 65.619 49.056 65.955 49.488C66.307 49.904 66.827 50.112 67.515 50.112Z" fill="white"/>
<path d="M75.9034 52.8C75.7274 52.8 75.5754 52.744 75.4474 52.632C75.3354 52.504 75.2794 52.352 75.2794 52.176V50.088C75.2794 49.928 75.3274 49.8 75.4234 49.704C75.5354 49.592 75.6794 49.52 75.8554 49.488C76.3194 49.44 76.6714 49.232 76.9114 48.864C77.1514 48.48 77.3194 47.928 77.4154 47.208C77.5114 46.488 77.5594 45.52 77.5594 44.304V40.92C77.5594 40.744 77.6154 40.6 77.7274 40.488C77.8554 40.376 77.9994 40.32 78.1594 40.32H87.5674C87.7434 40.32 87.8874 40.376 87.9994 40.488C88.1274 40.6 88.1914 40.744 88.1914 40.92V52.2C88.1914 52.376 88.1274 52.52 87.9994 52.632C87.8874 52.744 87.7434 52.8 87.5674 52.8H84.7354C84.5754 52.8 84.4314 52.744 84.3034 52.632C84.1914 52.504 84.1354 52.36 84.1354 52.2V43.464H81.3994V44.736C81.3994 46.832 81.2394 48.456 80.9194 49.608C80.5994 50.744 80.0474 51.56 79.2634 52.056C78.4954 52.552 77.3754 52.8 75.9034 52.8Z" fill="white"/>
<path d="M91.6954 52.8C91.5194 52.8 91.3754 52.744 91.2634 52.632C91.1514 52.52 91.0954 52.376 91.0954 52.2V40.92C91.0954 40.744 91.1514 40.6 91.2634 40.488C91.3754 40.376 91.5194 40.32 91.6954 40.32H94.5274C94.7034 40.32 94.8474 40.376 94.9594 40.488C95.0714 40.6 95.1274 40.744 95.1274 40.92V44.904H99.4474V40.92C99.4474 40.744 99.5034 40.6 99.6154 40.488C99.7274 40.376 99.8714 40.32 100.047 40.32H102.879C103.055 40.32 103.199 40.376 103.311 40.488C103.423 40.6 103.479 40.744 103.479 40.92V52.2C103.479 52.36 103.423 52.504 103.311 52.632C103.199 52.744 103.055 52.8 102.879 52.8H100.047C99.8714 52.8 99.7274 52.744 99.6154 52.632C99.5034 52.52 99.4474 52.376 99.4474 52.2V48.048H95.1274V52.2C95.1274 52.36 95.0714 52.504 94.9594 52.632C94.8474 52.744 94.7034 52.8 94.5274 52.8H91.6954Z" fill="white"/>
<path d="M118.52 40.32C118.68 40.32 118.816 40.376 118.928 40.488C119.04 40.6 119.096 40.736 119.096 40.896V52.2C119.096 52.36 119.04 52.504 118.928 52.632C118.816 52.744 118.672 52.8 118.496 52.8H115.664C115.504 52.8 115.36 52.744 115.232 52.632C115.12 52.504 115.064 52.36 115.064 52.2V45.48L110.192 52.416C110.016 52.672 109.792 52.8 109.52 52.8H106.976C106.816 52.8 106.68 52.744 106.568 52.632C106.456 52.52 106.4 52.384 106.4 52.224V40.92C106.4 40.744 106.456 40.6 106.568 40.488C106.68 40.376 106.824 40.32 107 40.32H109.832C110.008 40.32 110.152 40.376 110.264 40.488C110.376 40.6 110.432 40.744 110.432 40.92V47.616L115.28 40.704C115.456 40.448 115.68 40.32 115.952 40.32H118.52Z" fill="white"/>
<path d="M132.673 40.32C132.849 40.32 132.993 40.376 133.105 40.488C133.217 40.6 133.273 40.744 133.273 40.92V52.2C133.273 52.36 133.217 52.504 133.105 52.632C132.993 52.744 132.849 52.8 132.673 52.8H129.745C129.585 52.8 129.441 52.744 129.313 52.632C129.201 52.504 129.145 52.36 129.145 52.2V48.792H127.417L125.425 52.44C125.297 52.68 125.105 52.8 124.849 52.8H121.993C121.833 52.8 121.705 52.752 121.609 52.656C121.513 52.56 121.465 52.448 121.465 52.32C121.465 52.192 121.505 52.08 121.585 51.984L123.985 48.048C123.297 47.696 122.777 47.224 122.425 46.632C122.073 46.024 121.897 45.32 121.897 44.52C121.897 43.16 122.345 42.12 123.241 41.4C124.137 40.68 125.393 40.32 127.009 40.32H132.673ZM129.217 43.08H127.225C126.633 43.08 126.193 43.192 125.905 43.416C125.633 43.64 125.497 44.008 125.497 44.52C125.497 45 125.633 45.376 125.905 45.648C126.177 45.904 126.585 46.032 127.129 46.032H129.217V43.08Z" fill="white"/>
</svg>
